<mxfile host="app.diagrams.net" modified="2024-01-26T12:16:49.106Z" agent="Mozilla/5.0 (Macintosh; Intel Mac OS X 10_15_7) AppleWebKit/537.36 (KHTML, like Gecko) Chrome/118.0.0.0 YaBrowser/23.11.0.0 Safari/537.36" version="23.0.2" etag="QVp9SqE731sRBRd3dpwi" type="github">
  <diagram name="Страница — 1" id="9-gqNeUB6lnChdnZvvdo">
    <mxGraphModel>
      <root>
        <mxCell id="0" />
        <mxCell id="1" parent="0" />
      </root>
    </mxGraphModel>
  </diagram>
</mxfile>
